<?xml version="1.0" standalone="no"?><!DOCTYPE svg PUBLIC "-//W3C//DTD SVG 1.1//EN" "http://www.w3.org/Graphics/SVG/1.1/DTD/svg11.dtd"><svg t="1592301775115" class="icon" viewBox="0 0 1024 1024" version="1.1" xmlns="http://www.w3.org/2000/svg" p-id="2805" xmlns:xlink="http://www.w3.org/1999/xlink" width="200" height="200"><defs><style type="text/css"></style></defs><path d="M996.072727 493.381818L530.618182 37.236364C512 9.309091 493.381818 0 456.145455 0H102.4C46.545455 0 0 46.545455 0 102.4v353.745455c0 27.927273 9.309091 55.854545 27.927273 74.472727l465.454545 456.145454c18.618182 27.927273 37.236364 37.236364 74.472727 37.236364s55.854545-9.309091 74.472728-27.927273l363.054545-363.054545c9.309091-18.618182 18.618182-37.236364 18.618182-65.163637 0-37.236364-9.309091-55.854545-27.927273-74.472727zM176.872727 260.654545c-46.545455 0-74.472727-37.236364-74.472727-74.472727s37.236364-74.472727 74.472727-74.472727c46.545455 0 74.472727 37.236364 74.472728 74.472727s-27.927273 74.472727-74.472728 74.472727z" p-id="2806"></path></svg>