<?xml version="1.0" standalone="no"?><!DOCTYPE svg PUBLIC "-//W3C//DTD SVG 1.1//EN" "http://www.w3.org/Graphics/SVG/1.1/DTD/svg11.dtd"><svg t="1592301798609" class="icon" viewBox="0 0 1024 1024" version="1.1" xmlns="http://www.w3.org/2000/svg" p-id="3534" xmlns:xlink="http://www.w3.org/1999/xlink" width="200" height="200"><defs><style type="text/css"></style></defs><path d="M0 877.714286m54.857143 0l914.285714 0q54.857143 0 54.857143 54.857143l0 0q0 54.857143-54.857143 54.857142l-914.285714 0q-54.857143 0-54.857143-54.857142l0 0q0-54.857143 54.857143-54.857143Z" p-id="3535"></path><path d="M548.571429 146.285714v548.571429h-73.142858V146.285714h73.142858M585.142857 36.571429H438.857143a73.142857 73.142857 0 0 0-73.142857 73.142857V731.428571a73.142857 73.142857 0 0 0 73.142857 73.142858h146.285714a73.142857 73.142857 0 0 0 73.142857-73.142858V109.714286a73.142857 73.142857 0 0 0-73.142857-73.142857zM914.285714 365.714286v329.142857h-73.142857V365.714286h73.142857m36.571429-109.714286h-146.285714a73.142857 73.142857 0 0 0-73.142858 73.142857V731.428571a73.142857 73.142857 0 0 0 73.142858 73.142858h146.285714a73.142857 73.142857 0 0 0 73.142857-73.142858V329.142857a73.142857 73.142857 0 0 0-73.142857-73.142857zM182.857143 512v182.857143h-73.142857V512h73.142857M219.428571 402.285714H73.142857a73.142857 73.142857 0 0 0-73.142857 73.142857V731.428571a73.142857 73.142857 0 0 0 73.142857 73.142858h146.285714a73.142857 73.142857 0 0 0 73.142858-73.142858V475.428571a73.142857 73.142857 0 0 0-73.142858-73.142857z" p-id="3536"></path></svg>